<svg width="239" height="233" viewBox="0 0 239 233" fill="none" xmlns="http://www.w3.org/2000/svg">
<path d="M0.0158491 2.24347C-0.226918 0.210297 2.37996 -0.830836 3.60461 0.81019L50.8398 64.1053C55.8256 70.7863 64.4325 73.6741 72.439 71.3522L91.2761 65.8895C109.47 60.6134 128.787 60.6134 146.981 65.8895L165.818 71.3522C173.825 73.6741 182.431 70.7863 187.417 64.1053L234.652 0.810186C235.877 -0.830841 238.484 0.210308 238.241 2.24348L231.667 57.3049C230.253 69.1476 226.731 80.6419 221.27 91.2445L212.935 107.423C210.498 112.153 210.047 117.659 211.68 122.723L233.269 189.647C236.548 199.814 231.26 210.763 221.257 214.514L172.459 232.813C170.199 233.661 167.915 231.628 168.493 229.285L176.213 198.021C178.15 190.177 179.129 182.128 179.129 174.049V145.848C179.129 142.096 175.15 139.681 171.822 141.412L123.742 166.413C120.85 167.917 117.407 167.917 114.515 166.413L65.9981 141.184C62.7768 139.509 58.9004 141.718 58.699 145.343L57.4071 168.599C56.7597 180.251 58.157 191.927 61.5358 203.097L69.3718 229.004C70.0911 231.382 67.7732 233.554 65.4469 232.682L16.9999 214.514C6.99759 210.763 1.70864 199.814 4.98818 189.647L26.5768 122.723C28.2103 117.659 27.7587 112.153 25.3221 107.423L16.9876 91.2445C11.5256 80.6419 8.0044 69.1476 6.59035 57.3049L0.0158491 2.24347Z" fill="black"/>
</svg>
